<svg xmlns="http://www.w3.org/2000/svg" width="800" height="200" viewBox="0 0 800 200">
  <defs>
    <linearGradient id="grad1" x1="0%" y1="0%" x2="100%" y2="100%">
      <stop offset="0%" style="stop-color:#1e3a8a;stop-opacity:1" />
      <stop offset="50%" style="stop-color:#3b82f6;stop-opacity:1" />
      <stop offset="100%" style="stop-color:#0284c7;stop-opacity:1" />
    </linearGradient>
  </defs>
  <rect width="800" height="200" fill="url(#grad1)" rx="15"/>
  <line x1="0" y1="0" x2="67" y2="178" stroke="rgba(255,255,255,0.3)" stroke-width="2"/>
  <circle cx="0" cy="0" r="3" fill="#60a5fa" />
  <circle cx="67" cy="178" r="3" fill="#93c5fd" />
  <line x1="45" y1="73" x2="134" y2="67" stroke="rgba(255,255,255,0.3)" stroke-width="2"/>
  <circle cx="45" cy="73" r="3" fill="#60a5fa" />
  <circle cx="134" cy="67" r="3" fill="#93c5fd" />
  <line x1="90" y1="146" x2="201" y2="156" stroke="rgba(255,255,255,0.3)" stroke-width="2"/>
  <circle cx="90" cy="146" r="3" fill="#60a5fa" />
  <circle cx="201" cy="156" r="3" fill="#93c5fd" />
  <line x1="135" y1="19" x2="268" y2="45" stroke="rgba(255,255,255,0.3)" stroke-width="2"/>
  <circle cx="135" cy="19" r="3" fill="#60a5fa" />
  <circle cx="268" cy="45" r="3" fill="#93c5fd" />
  <line x1="180" y1="92" x2="335" y2="134" stroke="rgba(255,255,255,0.3)" stroke-width="2"/>
  <circle cx="180" cy="92" r="3" fill="#60a5fa" />
  <circle cx="335" cy="134" r="3" fill="#93c5fd" />
  <line x1="225" y1="165" x2="402" y2="23" stroke="rgba(255,255,255,0.3)" stroke-width="2"/>
  <circle cx="225" cy="165" r="3" fill="#60a5fa" />
  <circle cx="402" cy="23" r="3" fill="#93c5fd" />
  <line x1="270" y1="38" x2="469" y2="112" stroke="rgba(255,255,255,0.3)" stroke-width="2"/>
  <circle cx="270" cy="38" r="3" fill="#60a5fa" />
  <circle cx="469" cy="112" r="3" fill="#93c5fd" />
  <line x1="315" y1="111" x2="536" y2="1" stroke="rgba(255,255,255,0.3)" stroke-width="2"/>
  <circle cx="315" cy="111" r="3" fill="#60a5fa" />
  <circle cx="536" cy="1" r="3" fill="#93c5fd" />
  <line x1="360" y1="184" x2="603" y2="90" stroke="rgba(255,255,255,0.3)" stroke-width="2"/>
  <circle cx="360" cy="184" r="3" fill="#60a5fa" />
  <circle cx="603" cy="90" r="3" fill="#93c5fd" />
  <line x1="405" y1="57" x2="670" y2="179" stroke="rgba(255,255,255,0.3)" stroke-width="2"/>
  <circle cx="405" cy="57" r="3" fill="#60a5fa" />
  <circle cx="670" cy="179" r="3" fill="#93c5fd" />
  <line x1="450" y1="130" x2="737" y2="68" stroke="rgba(255,255,255,0.3)" stroke-width="2"/>
  <circle cx="450" cy="130" r="3" fill="#60a5fa" />
  <circle cx="737" cy="68" r="3" fill="#93c5fd" />
  <line x1="495" y1="3" x2="4" y2="157" stroke="rgba(255,255,255,0.3)" stroke-width="2"/>
  <circle cx="495" cy="3" r="3" fill="#60a5fa" />
  <circle cx="4" cy="157" r="3" fill="#93c5fd" />
  <line x1="540" y1="76" x2="71" y2="46" stroke="rgba(255,255,255,0.3)" stroke-width="2"/>
  <circle cx="540" cy="76" r="3" fill="#60a5fa" />
  <circle cx="71" cy="46" r="3" fill="#93c5fd" />
  <line x1="585" y1="149" x2="138" y2="135" stroke="rgba(255,255,255,0.3)" stroke-width="2"/>
  <circle cx="585" cy="149" r="3" fill="#60a5fa" />
  <circle cx="138" cy="135" r="3" fill="#93c5fd" />
  <line x1="630" y1="22" x2="205" y2="24" stroke="rgba(255,255,255,0.3)" stroke-width="2"/>
  <circle cx="630" cy="22" r="3" fill="#60a5fa" />
  <circle cx="205" cy="24" r="3" fill="#93c5fd" />
  <line x1="675" y1="95" x2="272" y2="113" stroke="rgba(255,255,255,0.3)" stroke-width="2"/>
  <circle cx="675" cy="95" r="3" fill="#60a5fa" />
  <circle cx="272" cy="113" r="3" fill="#93c5fd" />
  <line x1="720" y1="168" x2="339" y2="2" stroke="rgba(255,255,255,0.3)" stroke-width="2"/>
  <circle cx="720" cy="168" r="3" fill="#60a5fa" />
  <circle cx="339" cy="2" r="3" fill="#93c5fd" />
  <line x1="765" y1="41" x2="406" y2="91" stroke="rgba(255,255,255,0.3)" stroke-width="2"/>
  <circle cx="765" cy="41" r="3" fill="#60a5fa" />
  <circle cx="406" cy="91" r="3" fill="#93c5fd" />
  <line x1="10" y1="114" x2="473" y2="180" stroke="rgba(255,255,255,0.3)" stroke-width="2"/>
  <circle cx="10" cy="114" r="3" fill="#60a5fa" />
  <circle cx="473" cy="180" r="3" fill="#93c5fd" />
  <line x1="55" y1="187" x2="540" y2="69" stroke="rgba(255,255,255,0.3)" stroke-width="2"/>
  <circle cx="55" cy="187" r="3" fill="#60a5fa" />
  <circle cx="540" cy="69" r="3" fill="#93c5fd" />
  <circle cx="400" cy="100" r="50" fill="none" stroke="rgba(255,255,255,0.5)" stroke-width="4"/>
  <circle cx="400" cy="100" r="60" fill="none" stroke="rgba(255,255,255,0.3)" stroke-width="2" stroke-dasharray="10 5"/>
  <text x="400" y="110" font-family="monospace" font-size="24" fill="white" text-anchor="middle" font-weight="bold">AGENTSPACE.DIRECTORY</text>
</svg>